<?xml version="1.0" encoding="UTF-8"?>
<svg width="24px" height="24px" viewBox="0 0 24 24" version="1.1" xmlns="http://www.w3.org/2000/svg" xmlns:xlink="http://www.w3.org/1999/xlink">
    <title>Gallery</title>
    <g id="Gallery" stroke="none" stroke-width="1" fill="none" fill-rule="evenodd">
        <g id="Group-4">
            <polygon id="Fill-1" points="0 24.00045 24.0005 24.00045 24.0005 -5e-05 0 -5e-05"></polygon>
            <path d="M4.39515,18.29215 L6.71915,14.77765 C7.14965,14.12665 8.09815,14.12665 8.52915,14.77765 L9.66415,16.49465 C10.03065,17.04865 10.79765,17.14865 11.29115,16.70615 L16.24015,12.27365 C16.81115,11.76265 17.71265,11.98815 17.98065,12.70865 L20.14015,18.51515 C20.40665,19.23215 19.88165,19.99665 19.12215,19.99665 L5.30015,19.99665 C4.43115,19.99665 3.91315,19.02065 4.39515,18.29215 M6.99865,3.99665 C8.65565,3.99665 9.99865,5.33915 9.99865,6.99665 C9.99865,8.65415 8.65565,9.99665 6.99865,9.99665 C5.34165,9.99665 3.99865,8.65415 3.99865,6.99665 C3.99865,5.33915 5.34165,3.99665 6.99865,3.99665 M19.99865,1.99665 L3.99865,1.99665 C2.89365,1.99665 1.99865,2.89165 1.99865,3.99665 L1.99865,19.99665 C1.99865,21.10165 2.89365,21.99665 3.99865,21.99665 L19.99865,21.99665 C21.10365,21.99665 21.99865,21.10165 21.99865,19.99665 L21.99865,3.99665 C21.99865,2.89165 21.10365,1.99665 19.99865,1.99665" id="Fill-2" fill="#0A70E3"></path>
        </g>
    </g>
</svg>